<?xml version="1.0" standalone="no"?>
<!DOCTYPE svg PUBLIC "-//W3C//DTD SVG 20010904//EN"
 "http://www.w3.org/TR/2001/REC-SVG-20010904/DTD/svg10.dtd">
<svg version="1.0" xmlns="http://www.w3.org/2000/svg"
 width="600.000000pt" height="600.000000pt" viewBox="0 0 600.000000 600.000000"
 preserveAspectRatio="xMidYMid meet">

<g transform="translate(0.000000,600.000000) scale(0.100000,-0.100000)"
fill="#000000" stroke="none">
<path d="M2880 5685 c-25 -8 -508 -282 -1075 -609 -797 -459 -1042 -605 -1083
-644 -28 -28 -52 -57 -52 -65 0 -9 135 -93 340 -211 l339 -196 818 472 c450
260 824 472 833 472 8 0 383 -212 833 -472 l818 -472 339 196 c188 108 340
202 340 210 0 7 -24 37 -52 65 -43 41 -256 168 -1083 645 -566 327 -1052 601
-1079 609 -61 19 -176 18 -236 0z"/>
<path d="M5003 4152 l-342 -197 -1 -952 0 -953 -22 -14 c-13 -8 -385 -224
-828 -480 l-805 -465 -3 -395 -2 -396 37 0 c21 0 54 5 73 10 19 5 499 277
1065 604 781 450 1044 607 1089 647 71 65 111 142 126 244 12 86 13 2300 1
2396 -5 36 -17 84 -27 107 l-19 41 -342 -197z"/>
<path d="M2537 3816 c-252 -145 -460 -266 -462 -268 -7 -6 908 -532 925 -532
12 0 849 476 912 519 15 10 -46 49 -435 273 -248 143 -459 263 -467 267 -9 3
-201 -102 -473 -259z"/>
<path d="M3463 3262 l-463 -267 0 -538 0 -538 58 32 c31 18 242 140 467 270
l410 237 3 536 c1 295 -1 536 -5 536 -5 0 -216 -121 -470 -268z"/>
</g>
</svg>
